<?xml version="1.0" encoding="utf-8"?>
<!-- Generator: Adobe Illustrator 22.1.0, SVG Export Plug-In . SVG Version: 6.00 Build 0)  -->
<svg version="1.1" id="Layer_1" xmlns="http://www.w3.org/2000/svg" xmlns:xlink="http://www.w3.org/1999/xlink" x="0px" y="0px"
	 viewBox="0 0 825.16 272.264" style="enable-background:new 0 0 825.16 272.264;" xml:space="preserve">
<style type="text/css">
	.st0{fill:#49A32B;}
	.st1{fill:#FFFFFF;}
	.st2{fill:#2C282C;}
</style>
<title>SW-SB_Logo</title>
<g>
	<path class="st0" d="M239.8,108.764c4.091,5.846,10.4,9.586,16.95,9.586c6.55,0,10.988-3.273,10.988-8.768
		c0-4.091-3.507-6.079-8.885-9.469l-7.253-4.442c-6.9-4.325-11.341-9.7-11.341-19.053c0-12.974,11.808-23.611,26.77-23.611
		c9,0,17.3,4.556,23.144,11.572l-10.17,9.467c-3.855-4.091-8.063-7.131-13.675-7.131c-6.2,0-9.7,3.741-9.7,8.184
		c0,3.855,3.622,5.727,9.586,9.467l7.481,4.559c7.362,4.443,10.636,9.352,10.636,18.118c0,13.911-11.339,24.782-28.756,24.782
		c-9.935,0-19.754-4.091-27.235-14.261L239.8,108.764z"/>
	<path class="st0" d="M312.9,54.408h16.364L326.8,91c-0.7,8.065-1.4,16.366-2.337,24.432h0.468c3.156-8.066,6.9-16.481,9.936-24.432
		l15.663-36.587h13.57L364.33,91c-0.119,7.832-0.469,16.25-0.819,24.432h0.467c2.806-8.182,5.962-16.481,8.532-24.432l12.86-36.587
		h15.312l-29.574,76.214h-20.223l0.467-36.47c0-4.909,0.47-11.923,1.054-17.768h-0.468c-2.1,5.728-4.675,11.808-6.9,17.768
		l-14.965,36.47h-19.867L312.9,54.408z"/>
	<path class="st0" d="M443.705,111.621h-22.677l-9,19.172h-17.651l40.211-76.217h19.17l7.6,76.217h-16.717L443.705,111.621z
		 M443.121,99.581l-0.468-10.053c-0.35-7.481-0.7-14.612-0.934-22.677h-0.468c-3.273,7.832-6.2,15.079-9.819,22.677l-4.676,10.053
		H443.121z"/>
	<path class="st0" d="M523.028,54.147c9.819,0,16.95,4.558,21.275,12.156l-10.872,8.416c-2.922-4.441-6.312-6.663-11.221-6.663
		c-14.145,0-24.432,15.2-24.432,32.146c0,11.691,4.559,19.289,16.483,19.289c2.964,0.007,5.859-0.891,8.3-2.573l3.274-14.962
		h-12.508l2.451-13.09h26.536l-7.014,36.353c-6.858,5.2-15.239,7.994-23.845,7.949c-18.82,0-30.161-11.808-30.161-31.913
		c0-26.3,17.768-47.108,41.733-47.108"/>
	<path class="st0" d="M601.773,54.705c9.819,0,16.95,4.558,21.274,12.156l-10.871,8.416c-2.923-4.442-6.313-6.664-11.221-6.664
		c-14.145,0-24.432,15.2-24.432,32.146c0,11.692,4.559,19.29,16.483,19.29c2.964,0.007,5.859-0.891,8.3-2.573l3.273-14.962h-12.507
		l2.451-13.091h26.536l-7.014,36.354c-6.858,5.2-15.239,7.994-23.845,7.949c-18.819,0-30.16-11.808-30.16-31.913
		C560.04,75.513,577.808,54.705,601.773,54.705"/>
	<polygon class="st0" points="650.52,54.486 695.643,54.486 693.068,67.93 663.73,67.93 660.457,84.529 685.356,84.529 
		682.783,97.971 657.885,97.971 653.91,117.257 684.185,117.257 681.615,130.701 635.208,130.701 	"/>
	<path class="st0" d="M743.09,54.486c14.963,0,26.07,5.378,26.07,19.522c0,14.262-8.185,22.794-19.406,26.535l11.808,30.157h-16.834
		l-9.817-27.936h-9.353l-5.5,27.936h-16.13l15.312-76.214H743.09z M736.2,90.022c11.338,0,17.181-5.378,17.181-13.677
		c0-6.43-4.558-9.117-12.74-9.117h-8.065l-4.444,22.794H736.2z"/>
	<g>
		<path class="st1" d="M93.14,187.731c-50-0.345-93.475-41.858-93.138-94.6C0.326,42.382,42.481-0.346,94.643,0
			c50.695,0.337,93.465,42.434,93.012,94.008C188.075,145.114,145.094,188.092,93.14,187.731z M93.14,187.731
			c-50-0.345-93.475-41.858-93.138-94.6C0.326,42.382,42.481-0.346,94.643,0c50.695,0.337,93.465,42.434,93.012,94.008
			C188.075,145.114,145.094,188.092,93.14,187.731z"/>
		<path class="st0" d="M93.324,175.578c-43.471-0.3-81.266-36.391-80.973-82.243c0.282-44.121,36.931-81.268,82.28-80.966
			c44.073,0.293,81.257,36.892,80.863,81.729C175.859,138.528,138.493,175.892,93.324,175.578z M93.324,175.578
			c-43.471-0.3-81.266-36.391-80.973-82.243c0.282-44.121,36.931-81.268,82.28-80.966c44.073,0.293,81.257,36.892,80.863,81.729
			C175.859,138.528,138.493,175.892,93.324,175.578z"/>
		<path class="st1" d="M124.009,94.042c0.2-3.583-3.086-6.714-6.791-6.732c-3.716-0.063-6.797,2.865-6.923,6.58
			c0.004,3.705,3.011,6.705,6.716,6.7c0.017,0,0.034,0,0.05,0C120.406,101.153,123.8,97.927,124.009,94.042z"/>
		<path class="st1" d="M64.432,131.689c-3.388-0.1-4.664-0.937-5-4.218c-0.431-4.227-0.308-8.505-0.577-12.753
			c-0.5-7.905-1.376-15.69-9.075-20.7c3.966-2.938,6.828-6.4,7.737-11.055c0.638-3.212,1.075-6.461,1.308-9.727
			c0.223-3.282-0.173-6.609,0.114-9.88c0.46-5.216,0.786-7.362,7.087-7.169c0.934,0.028,1.874-0.121,2.9-0.194V45.645
			c-2.493,0-4.7-0.1-6.9,0.018c-7.732,0.41-12.413,4.073-13.689,11.613c-0.883,5.214-0.746,10.6-1.132,15.9
			c-0.087,2.741-0.381,5.471-0.877,8.168c-1.09,4.8-3.144,6.294-8.017,6.534c-0.65,0.073-1.296,0.183-1.933,0.332v11.527
			c8.888,0.438,10.088,3.6,10.8,12.862c0.257,3.366-0.115,6.776,0.1,10.148c0.156,3.185,0.582,6.351,1.275,9.463
			c2.024,8.464,10.272,11.307,20.285,9.614V131.7C67.227,131.7,65.829,131.73,64.432,131.689z"/>
		<path class="st1" d="M70.921,87.31c-3.664-0.182-6.782,2.641-6.964,6.305c-0.182,3.664,2.641,6.782,6.305,6.964
			c0.145,0.007,0.289,0.01,0.434,0.007c3.598,0.207,6.682-2.541,6.889-6.139c0.007-0.12,0.011-0.24,0.011-0.361
			c0.061-3.682-2.875-6.715-6.556-6.776C71,87.31,70.961,87.31,70.921,87.31z"/>
		<path class="st1" d="M93.86,87.31c-3.515-0.113-6.456,2.645-6.569,6.16c-0.006,0.202-0.003,0.404,0.009,0.606
			c0.022,3.956,2.7,6.529,6.768,6.511c4-0.017,6.535-2.632,6.513-6.719C100.56,89.888,97.886,87.279,93.86,87.31z"/>
		<path class="st1" d="M141.888,82.268c-0.651-2.572-1.047-5.202-1.184-7.852c-0.312-4.871-0.264-9.765-0.59-14.636
			c-0.778-11.6-9.153-15.634-21.277-13.621v10.058c1.9,0,3.392-0.029,4.878,0.007c2.594,0.064,4.552,1.05,4.83,3.9
			c0.258,2.64,0.246,5.305,0.493,7.947c0.5,5.285,0.8,10.612,1.729,15.824c0.768,4.3,3.733,7.489,7.426,10.122
			c-6.454,4.321-8.351,10.51-8.662,17.438c-0.214,4.793-0.318,9.591-0.556,14.383c-0.215,4.362-1.768,5.778-6.16,5.883
			c-1.215,0.029-2.427,0.146-3.8,0.231v10.3c2.551,0,4.934,0.118,7.3-0.022c7.351-0.434,11.8-3.989,13.24-11.115
			c0.617-3.933,0.979-7.902,1.084-11.882c0.25-3.625,0.22-7.277,0.584-10.889c0.57-5.658,3.142-7.973,8.785-8.324
			c0.533-0.082,1.058-0.208,1.57-0.376V88.12c-0.946-0.105-1.633-0.222-2.323-0.254C145.044,87.674,142.959,86.268,141.888,82.268z"
			/>
	</g>
	<g>
		<path class="st2" d="M254.606,232.264c-4.715-0.05-9.391-0.856-13.85-2.386c-1.06-0.332-1.392-0.795-1.392-1.391
			c0.033-0.387,0.122-0.767,0.265-1.128l1.79-5.367c0.2-0.662,0.529-1.258,1.391-1.258c0.39,0.007,0.775,0.097,1.127,0.265
			c3.295,1.298,6.796,1.993,10.337,2.054c2.783,0,6.3-1.458,6.3-4.7c0-2.518-1.988-3.777-4.042-4.705l-8.88-4.108
			c-4.9-2.253-8.15-6.362-8.15-11.928c0-8.482,8.482-13.254,16.235-13.254c4.489-0.044,8.938,0.86,13.054,2.652
			c1.06,0.463,1.458,0.927,1.458,1.524c-0.042,0.342-0.131,0.676-0.265,0.993l-2.054,5.169c-0.331,0.862-0.729,1.193-1.325,1.193
			c-0.415-0.034-0.82-0.146-1.193-0.331c-2.844-1.267-5.902-1.987-9.013-2.122c-2.65,0-5.632,0.995-5.632,4.11
			c0,2.12,2.651,3.445,4.307,4.174l7.62,3.446c5.236,2.386,8.615,5.963,8.615,11.994C271.3,226.7,263.684,232.264,254.606,232.264z"
			/>
		<path class="st2" d="M320.2,231.336c-1.723,0-2.12-0.862-2.187-2.717l-0.728-22.729h-0.133l-10.006,23.988
			c-0.294,0.971-1.247,1.587-2.253,1.458h-2.452c-1.133,0.183-2.239-0.453-2.651-1.524l-11.461-23.922H288.2l-0.4,23.392
			c0,1.855-0.861,2.054-2.253,2.054h-5.434c-1.656,0-2.319-0.6-2.252-2.12l1.788-41.748c0.067-1.591,0.8-2.12,2.055-2.12h4.771
			c1.217-0.134,2.358,0.617,2.717,1.788l14.645,29.953h0.132l13.253-29.953c0.405-1.136,1.514-1.866,2.717-1.788h4.639
			c1.325,0,1.789,0.463,1.855,1.657l2.187,42.277c0.066,1.325-0.464,2.054-1.789,2.054L320.2,231.336z"/>
		<path class="st2" d="M377.846,231.336h-7.422c-1.208,0.129-2.32-0.669-2.584-1.855l-2.65-7.688h-16.368l-2.651,7.952
			c-0.179,0.948-1.023,1.623-1.987,1.591h-7.555c-0.536,0.049-1.011-0.346-1.06-0.882c-0.005-0.06-0.005-0.12,0-0.179
			c-0.021-0.272,0.025-0.544,0.133-0.794l15.771-42.476c0.269-1.013,1.206-1.702,2.253-1.657h6.825
			c1.034-0.111,2.013,0.487,2.385,1.458l16.1,42.21c0.118,0.321,0.186,0.658,0.2,1c0.05,0.682-0.463,1.276-1.145,1.326
			C378.009,231.348,377.927,231.346,377.846,231.336z M362.34,213.842l-4.175-13.055c-0.464-1.458-0.861-2.716-1.193-3.844h-0.132
			c-0.331,1.194-0.729,2.519-1.193,3.911l-4.174,12.988H362.34z"/>
		<path class="st2" d="M409.647,229.878l-9.211-14.114h-4.108v13.717c0.132,0.888-0.481,1.715-1.369,1.847
			c-0.139,0.021-0.281,0.023-0.421,0.008h-6.891c-1.325,0-1.856-0.6-1.856-1.921V187.6c0-1.79,0.4-2.253,2.187-2.253h10.072
			c5.633,0,12.392,0.463,16.435,4.97c2.356,2.745,3.628,6.256,3.578,9.873c0,5.9-2.518,10.8-7.886,13.518v0.133l10.868,15.506
			c0.239,0.329,0.378,0.72,0.4,1.126c0,0.6-0.53,0.862-1.06,0.862h-7.753C411.44,231.463,410.28,230.896,409.647,229.878z
			 M398.912,193.3h-2.584v14.578h3.313c4.837,0,7.819-2.584,7.819-7.488C407.46,195.155,403.882,193.3,398.912,193.3z"/>
		<path class="st2" d="M460.533,187.005L460,192.239c-0.132,1.325-0.993,1.657-2.385,1.657h-11.661v35.717
			c0,1.458-0.2,1.723-1.523,1.723h-7.489c-1.391,0-1.524-0.2-1.524-1.591V193.9h-12.127c-1.325,0-1.855-0.663-1.855-1.988v-4.9
			c0-1.128,0.6-1.657,1.79-1.657h35.65C460.2,185.348,460.666,186.01,460.533,187.005z"/>
		<path class="st2" d="M482.131,231.336h-13.254c-1.59,0-1.988-0.663-1.988-2.32v-41.747c0-1.591,0.663-1.921,2.187-1.921h10.735
			c11.8,0,17.561,3.445,17.561,11.265c0,4.506-2.585,8.548-7.157,9.541v0.068c6.229,0.661,10.735,4.9,10.735,11.529
			C500.95,228.752,491.673,231.336,482.131,231.336z M480.54,193.3h-3.247v10.337h2.518c4.97,0,7.223-1.392,7.223-5.566
			C487.034,194.889,484.582,193.3,480.54,193.3z M487.034,211.788c-1.922-0.862-3.843-0.928-6.428-0.928
			c-0.8,0-2.252,0.066-3.313,0.066v12.392h4.107c1.835,0.075,3.67-0.149,5.434-0.663c2.181-0.864,3.568-3.024,3.445-5.367
			C490.442,214.959,489.151,212.772,487.034,211.788L487.034,211.788z"/>
		<path class="st2" d="M534.475,185.348c1.325,0,1.722,0.662,1.657,1.524l-0.6,5.367c-0.131,1.392-0.993,1.657-2.584,1.657h-16.034
			v9.874h15.042c1.458,0,1.989,0.728,1.989,1.788v4.842c0.138,0.924-0.498,1.785-1.422,1.923c-0.166,0.025-0.335,0.025-0.501,0
			h-15.108v10.47h17.295c1.194,0,1.923,0.53,1.923,1.788v4.905c0.138,0.886-0.468,1.717-1.354,1.855
			c-0.167,0.026-0.337,0.026-0.503,0h-25.71c-1.524,0-2.187-0.4-2.187-2.054V187.2c-0.12-0.898,0.51-1.723,1.408-1.843
			c0.105-0.014,0.21-0.018,0.315-0.012L534.475,185.348z"/>
		<path class="st2" d="M583.439,231.336h-7.422c-1.208,0.128-2.319-0.67-2.584-1.855l-2.65-7.688h-16.368l-2.65,7.952
			c-0.18,0.948-1.024,1.623-1.988,1.591h-7.554c-0.537,0.049-1.012-0.346-1.061-0.883c-0.005-0.059-0.005-0.119,0-0.178
			c-0.021-0.272,0.025-0.544,0.133-0.794l15.77-42.476c0.27-1.013,1.207-1.702,2.254-1.657h6.826
			c1.034-0.111,2.012,0.488,2.385,1.458l16.1,42.21c0.119,0.321,0.186,0.658,0.2,1c0.05,0.682-0.462,1.276-1.145,1.326
			C583.603,231.348,583.521,231.346,583.439,231.336z M567.933,213.842l-4.174-13.055c-0.465-1.458-0.862-2.716-1.193-3.844h-0.132
			c-0.332,1.194-0.729,2.519-1.194,3.911l-4.175,12.988H567.933z"/>
		<path class="st2" d="M614.246,229.878l-9.211-14.114h-4.109v13.717c0.133,0.888-0.479,1.715-1.367,1.847
			c-0.14,0.021-0.282,0.023-0.422,0.008h-6.892c-1.325,0-1.855-0.6-1.855-1.921V187.6c0-1.79,0.4-2.253,2.187-2.253h10.072
			c5.632,0,12.392,0.463,16.434,4.97c2.356,2.745,3.628,6.256,3.578,9.873c0,5.9-2.517,10.8-7.886,13.518v0.133l10.868,15.506
			c0.239,0.329,0.378,0.72,0.4,1.126c0,0.6-0.53,0.862-1.06,0.862h-7.753C616.038,231.462,614.878,230.896,614.246,229.878z
			 M603.51,193.3h-2.584v14.578h3.313c4.838,0,7.82-2.584,7.82-7.488C612.059,195.155,608.48,193.3,603.51,193.3z"/>
	</g>
</g>
</svg>
